<?xml version="1.0" encoding="UTF-8"?>
<svg xmlns="http://www.w3.org/2000/svg" viewBox="0 0 24 24" width="64" height="64" role="img" aria-label="Cushion Modified Brilliant">
<path d="M5.1,6.91 L12,3.49 L18.9,6.91 L19.74,12 L18.9,17.09 L12,20.51 L5.1,17.09 L4.26,12Z" fill="none" stroke="#4caf7a" stroke-width="1.2"/><path d="M9.1,9.86 L12,8.43 L14.9,9.86 L15.25,12 L14.9,14.14 L12,15.57 L9.1,14.14 L8.75,12Z" fill="none" stroke="#4caf7a" stroke-width="0.7"/><line x1="9.1" y1="9.86" x2="5.1" y2="6.91" stroke="#4caf7a" stroke-width="0.45" opacity="0.62"/><line x1="5.1" y1="6.91" x2="12" y2="3.49" stroke="#4caf7a" stroke-width="0.45" opacity="0.62"/><line x1="12" y1="8.43" x2="12" y2="3.49" stroke="#4caf7a" stroke-width="0.45" opacity="0.62"/><line x1="12" y1="3.49" x2="18.9" y2="6.91" stroke="#4caf7a" stroke-width="0.45" opacity="0.62"/><line x1="14.9" y1="9.86" x2="18.9" y2="6.91" stroke="#4caf7a" stroke-width="0.45" opacity="0.62"/><line x1="18.9" y1="6.91" x2="19.74" y2="12" stroke="#4caf7a" stroke-width="0.45" opacity="0.62"/><line x1="15.25" y1="12" x2="19.74" y2="12" stroke="#4caf7a" stroke-width="0.45" opacity="0.62"/><line x1="19.74" y1="12" x2="18.9" y2="17.09" stroke="#4caf7a" stroke-width="0.45" opacity="0.62"/><line x1="14.9" y1="14.14" x2="18.9" y2="17.09" stroke="#4caf7a" stroke-width="0.45" opacity="0.62"/><line x1="18.9" y1="17.09" x2="12" y2="20.51" stroke="#4caf7a" stroke-width="0.45" opacity="0.62"/><line x1="12" y1="15.57" x2="12" y2="20.51" stroke="#4caf7a" stroke-width="0.45" opacity="0.62"/><line x1="12" y1="20.51" x2="5.1" y2="17.09" stroke="#4caf7a" stroke-width="0.45" opacity="0.62"/><line x1="9.1" y1="14.14" x2="5.1" y2="17.09" stroke="#4caf7a" stroke-width="0.45" opacity="0.62"/><line x1="5.1" y1="17.09" x2="4.26" y2="12" stroke="#4caf7a" stroke-width="0.45" opacity="0.62"/><line x1="8.75" y1="12" x2="4.26" y2="12" stroke="#4caf7a" stroke-width="0.45" opacity="0.62"/><line x1="4.26" y1="12" x2="5.1" y2="6.91" stroke="#4caf7a" stroke-width="0.45" opacity="0.62"/>
</svg>
