<?xml version="1.0" encoding="UTF-8"?>
<svg xmlns="http://www.w3.org/2000/svg" viewBox="0 0 24 24" width="64" height="64" role="img" aria-label="Hexagonal Dutch / Dutch Marquise">
<path d="M12,3.3 L14.58,7.84 L16.45,12 L14.58,16.16 L12,20.7 L9.42,16.16 L7.55,12 L9.42,7.84Z" fill="none" stroke="#5b9bd5" stroke-width="1.2"/><path d="M12,8.69 L12.98,10.42 L13.69,12 L12.98,13.58 L12,15.31 L11.02,13.58 L10.31,12 L11.02,10.42Z" fill="none" stroke="#5b9bd5" stroke-width="0.7"/><line x1="12" y1="8.69" x2="12" y2="3.3" stroke="#5b9bd5" stroke-width="0.45" opacity="0.62"/><line x1="12" y1="3.3" x2="14.58" y2="7.84" stroke="#5b9bd5" stroke-width="0.45" opacity="0.62"/><line x1="12.98" y1="10.42" x2="14.58" y2="7.84" stroke="#5b9bd5" stroke-width="0.45" opacity="0.62"/><line x1="14.58" y1="7.84" x2="16.45" y2="12" stroke="#5b9bd5" stroke-width="0.45" opacity="0.62"/><line x1="13.69" y1="12" x2="16.45" y2="12" stroke="#5b9bd5" stroke-width="0.45" opacity="0.62"/><line x1="16.45" y1="12" x2="14.58" y2="16.16" stroke="#5b9bd5" stroke-width="0.45" opacity="0.62"/><line x1="12.98" y1="13.58" x2="14.58" y2="16.16" stroke="#5b9bd5" stroke-width="0.45" opacity="0.62"/><line x1="14.58" y1="16.16" x2="12" y2="20.7" stroke="#5b9bd5" stroke-width="0.45" opacity="0.62"/><line x1="12" y1="15.31" x2="12" y2="20.7" stroke="#5b9bd5" stroke-width="0.45" opacity="0.62"/><line x1="12" y1="20.7" x2="9.42" y2="16.16" stroke="#5b9bd5" stroke-width="0.45" opacity="0.62"/><line x1="11.02" y1="13.58" x2="9.42" y2="16.16" stroke="#5b9bd5" stroke-width="0.45" opacity="0.62"/><line x1="9.42" y1="16.16" x2="7.55" y2="12" stroke="#5b9bd5" stroke-width="0.45" opacity="0.62"/><line x1="10.31" y1="12" x2="7.55" y2="12" stroke="#5b9bd5" stroke-width="0.45" opacity="0.62"/><line x1="7.55" y1="12" x2="9.42" y2="7.84" stroke="#5b9bd5" stroke-width="0.45" opacity="0.62"/><line x1="11.02" y1="10.42" x2="9.42" y2="7.84" stroke="#5b9bd5" stroke-width="0.45" opacity="0.62"/><line x1="9.42" y1="7.84" x2="12" y2="3.3" stroke="#5b9bd5" stroke-width="0.45" opacity="0.62"/>
</svg>
