<?xml version="1.0" encoding="UTF-8"?>
<svg xmlns="http://www.w3.org/2000/svg" viewBox="0 0 24 24" width="64" height="64" role="img" aria-label="Hexagonal Dutch / Dutch Marquise">
<path d="M12,3.3 L16.22,8.48 L16.22,15.52 L12,20.7 L7.78,15.52 L7.78,8.48Z" fill="none" stroke="#5b9bd5" stroke-width="1.2"/><path d="M12,8.69 L13.6,10.66 L13.6,13.34 L12,15.31 L10.4,13.34 L10.4,10.66Z" fill="none" stroke="#5b9bd5" stroke-width="0.7"/><line x1="12" y1="8.69" x2="12" y2="3.3" stroke="#5b9bd5" stroke-width="0.45" opacity="0.62"/><line x1="12" y1="3.3" x2="16.22" y2="8.48" stroke="#5b9bd5" stroke-width="0.45" opacity="0.62"/><line x1="13.6" y1="10.66" x2="16.22" y2="8.48" stroke="#5b9bd5" stroke-width="0.45" opacity="0.62"/><line x1="16.22" y1="8.48" x2="16.22" y2="15.52" stroke="#5b9bd5" stroke-width="0.45" opacity="0.62"/><line x1="13.6" y1="13.34" x2="16.22" y2="15.52" stroke="#5b9bd5" stroke-width="0.45" opacity="0.62"/><line x1="16.22" y1="15.52" x2="12" y2="20.7" stroke="#5b9bd5" stroke-width="0.45" opacity="0.62"/><line x1="12" y1="15.31" x2="12" y2="20.7" stroke="#5b9bd5" stroke-width="0.45" opacity="0.62"/><line x1="12" y1="20.7" x2="7.78" y2="15.52" stroke="#5b9bd5" stroke-width="0.45" opacity="0.62"/><line x1="10.4" y1="13.34" x2="7.78" y2="15.52" stroke="#5b9bd5" stroke-width="0.45" opacity="0.62"/><line x1="7.78" y1="15.52" x2="7.78" y2="8.48" stroke="#5b9bd5" stroke-width="0.45" opacity="0.62"/><line x1="10.4" y1="10.66" x2="7.78" y2="8.48" stroke="#5b9bd5" stroke-width="0.45" opacity="0.62"/><line x1="7.78" y1="8.48" x2="12" y2="3.3" stroke="#5b9bd5" stroke-width="0.45" opacity="0.62"/>
</svg>
