<?xml version="1.0" encoding="UTF-8"?>
<svg xmlns="http://www.w3.org/2000/svg" viewBox="0 0 24 24" width="64" height="64" role="img" aria-label="Cut Cornered Rectangular Modified Brilliant">
<path d="M5.81,5.34 L18.19,5.34 L18.19,18.66 L5.81,18.66Z" fill="none" stroke="#e06060" stroke-width="1.2"/><path d="M7.43,7.38 L16.57,7.38 L16.57,16.63 L7.43,16.63Z" fill="none" stroke="#e06060" stroke-width="0.75"/><path d="M9.17,9.41 L14.83,9.41 L14.83,14.59 L9.17,14.59Z" fill="none" stroke="#e06060" stroke-width="0.45"/><line x1="5.81" y1="5.34" x2="7.43" y2="7.38" stroke="#e06060" stroke-width="0.45" opacity="0.62"/><line x1="7.43" y1="7.38" x2="9.17" y2="9.41" stroke="#e06060" stroke-width="0.45" opacity="0.62"/><line x1="9.17" y1="9.41" x2="14.83" y2="9.41" stroke="#e06060" stroke-width="0.45" opacity="0.62"/><line x1="14.83" y1="9.41" x2="16.57" y2="7.38" stroke="#e06060" stroke-width="0.45" opacity="0.62"/><line x1="16.57" y1="7.38" x2="18.19" y2="5.34" stroke="#e06060" stroke-width="0.45" opacity="0.62"/><line x1="18.19" y1="5.34" x2="5.81" y2="5.34" stroke="#e06060" stroke-width="0.45" opacity="0.62"/><line x1="18.19" y1="5.34" x2="16.57" y2="7.38" stroke="#e06060" stroke-width="0.45" opacity="0.62"/><line x1="16.57" y1="7.38" x2="14.83" y2="9.41" stroke="#e06060" stroke-width="0.45" opacity="0.62"/><line x1="14.83" y1="9.41" x2="14.83" y2="14.59" stroke="#e06060" stroke-width="0.45" opacity="0.62"/><line x1="14.83" y1="14.59" x2="16.57" y2="16.63" stroke="#e06060" stroke-width="0.45" opacity="0.62"/><line x1="16.57" y1="16.63" x2="18.19" y2="18.66" stroke="#e06060" stroke-width="0.45" opacity="0.62"/><line x1="18.19" y1="18.66" x2="18.19" y2="5.34" stroke="#e06060" stroke-width="0.45" opacity="0.62"/><line x1="18.19" y1="18.66" x2="16.57" y2="16.63" stroke="#e06060" stroke-width="0.45" opacity="0.62"/><line x1="16.57" y1="16.63" x2="14.83" y2="14.59" stroke="#e06060" stroke-width="0.45" opacity="0.62"/><line x1="14.83" y1="14.59" x2="9.17" y2="14.59" stroke="#e06060" stroke-width="0.45" opacity="0.62"/><line x1="9.17" y1="14.59" x2="7.43" y2="16.63" stroke="#e06060" stroke-width="0.45" opacity="0.62"/><line x1="7.43" y1="16.63" x2="5.81" y2="18.66" stroke="#e06060" stroke-width="0.45" opacity="0.62"/><line x1="5.81" y1="18.66" x2="18.19" y2="18.66" stroke="#e06060" stroke-width="0.45" opacity="0.62"/><line x1="5.81" y1="18.66" x2="7.43" y2="16.63" stroke="#e06060" stroke-width="0.45" opacity="0.62"/><line x1="7.43" y1="16.63" x2="9.17" y2="14.59" stroke="#e06060" stroke-width="0.45" opacity="0.62"/><line x1="9.17" y1="14.59" x2="9.17" y2="9.41" stroke="#e06060" stroke-width="0.45" opacity="0.62"/><line x1="9.17" y1="9.41" x2="7.43" y2="7.38" stroke="#e06060" stroke-width="0.45" opacity="0.62"/><line x1="7.43" y1="7.38" x2="5.81" y2="5.34" stroke="#e06060" stroke-width="0.45" opacity="0.62"/><line x1="5.81" y1="5.34" x2="5.81" y2="18.66" stroke="#e06060" stroke-width="0.45" opacity="0.62"/>
</svg>
