<?xml version="1.0" encoding="UTF-8"?>
<svg xmlns="http://www.w3.org/2000/svg" viewBox="0 0 24 24" width="64" height="64" role="img" aria-label="Shield Modified Brilliant">
<path d="M12,3.49 L18.27,8.76 L16.99,17.09 L12,20.51 L7.01,17.09 L5.73,8.76Z" fill="none" stroke="#9b70d4" stroke-width="1.2"/><path d="M12,8.77 L14.38,10.77 L13.9,13.93 L12,15.23 L10.1,13.93 L9.62,10.77Z" fill="none" stroke="#9b70d4" stroke-width="0.7"/><line x1="12" y1="8.77" x2="12" y2="3.49" stroke="#9b70d4" stroke-width="0.45" opacity="0.62"/><line x1="12" y1="3.49" x2="18.27" y2="8.76" stroke="#9b70d4" stroke-width="0.45" opacity="0.62"/><line x1="14.38" y1="10.77" x2="18.27" y2="8.76" stroke="#9b70d4" stroke-width="0.45" opacity="0.62"/><line x1="18.27" y1="8.76" x2="16.99" y2="17.09" stroke="#9b70d4" stroke-width="0.45" opacity="0.62"/><line x1="13.9" y1="13.93" x2="16.99" y2="17.09" stroke="#9b70d4" stroke-width="0.45" opacity="0.62"/><line x1="16.99" y1="17.09" x2="12" y2="20.51" stroke="#9b70d4" stroke-width="0.45" opacity="0.62"/><line x1="12" y1="15.23" x2="12" y2="20.51" stroke="#9b70d4" stroke-width="0.45" opacity="0.62"/><line x1="12" y1="20.51" x2="7.01" y2="17.09" stroke="#9b70d4" stroke-width="0.45" opacity="0.62"/><line x1="10.1" y1="13.93" x2="7.01" y2="17.09" stroke="#9b70d4" stroke-width="0.45" opacity="0.62"/><line x1="7.01" y1="17.09" x2="5.73" y2="8.76" stroke="#9b70d4" stroke-width="0.45" opacity="0.62"/><line x1="9.62" y1="10.77" x2="5.73" y2="8.76" stroke="#9b70d4" stroke-width="0.45" opacity="0.62"/><line x1="5.73" y1="8.76" x2="12" y2="3.49" stroke="#9b70d4" stroke-width="0.45" opacity="0.62"/>
</svg>
