<?xml version="1.0" encoding="UTF-8"?>
<svg xmlns="http://www.w3.org/2000/svg" viewBox="0 0 24 24" width="64" height="64" role="img" aria-label="Shield Modified Brilliant">
<path d="M4.85,4.79 L19.15,4.79 L19.99,12.46 L12,20.51 L4.01,12.46Z" fill="none" stroke="#9b70d4" stroke-width="1.2"/><path d="M9.28,9.26 L14.72,9.26 L15.04,12.17 L12,15.23 L8.96,12.17Z" fill="none" stroke="#9b70d4" stroke-width="0.7"/><line x1="9.28" y1="9.26" x2="4.85" y2="4.79" stroke="#9b70d4" stroke-width="0.45" opacity="0.62"/><line x1="4.85" y1="4.79" x2="19.15" y2="4.79" stroke="#9b70d4" stroke-width="0.45" opacity="0.62"/><line x1="14.72" y1="9.26" x2="19.15" y2="4.79" stroke="#9b70d4" stroke-width="0.45" opacity="0.62"/><line x1="19.15" y1="4.79" x2="19.99" y2="12.46" stroke="#9b70d4" stroke-width="0.45" opacity="0.62"/><line x1="15.04" y1="12.17" x2="19.99" y2="12.46" stroke="#9b70d4" stroke-width="0.45" opacity="0.62"/><line x1="19.99" y1="12.46" x2="12" y2="20.51" stroke="#9b70d4" stroke-width="0.45" opacity="0.62"/><line x1="12" y1="15.23" x2="12" y2="20.51" stroke="#9b70d4" stroke-width="0.45" opacity="0.62"/><line x1="12" y1="20.51" x2="4.01" y2="12.46" stroke="#9b70d4" stroke-width="0.45" opacity="0.62"/><line x1="8.96" y1="12.17" x2="4.01" y2="12.46" stroke="#9b70d4" stroke-width="0.45" opacity="0.62"/><line x1="4.01" y1="12.46" x2="4.85" y2="4.79" stroke="#9b70d4" stroke-width="0.45" opacity="0.62"/>
</svg>
