<?xml version="1.0" encoding="UTF-8"?>
<svg xmlns="http://www.w3.org/2000/svg" viewBox="0 0 24 24" width="64" height="64" role="img" aria-label="Square Cushion Modified Brilliant">
<path d="M4.42,6.91 L12,3.49 L19.59,6.91 L20.51,12 L19.59,17.09 L12,20.51 L4.42,17.09 L3.49,12Z" fill="none" stroke="#4caf7a" stroke-width="1.2"/><path d="M8.82,9.86 L12,8.43 L15.19,9.86 L15.57,12 L15.19,14.14 L12,15.57 L8.82,14.14 L8.43,12Z" fill="none" stroke="#4caf7a" stroke-width="0.7"/><line x1="8.82" y1="9.86" x2="4.42" y2="6.91" stroke="#4caf7a" stroke-width="0.45" opacity="0.62"/><line x1="4.42" y1="6.91" x2="12" y2="3.49" stroke="#4caf7a" stroke-width="0.45" opacity="0.62"/><line x1="12" y1="8.43" x2="12" y2="3.49" stroke="#4caf7a" stroke-width="0.45" opacity="0.62"/><line x1="12" y1="3.49" x2="19.59" y2="6.91" stroke="#4caf7a" stroke-width="0.45" opacity="0.62"/><line x1="15.19" y1="9.86" x2="19.59" y2="6.91" stroke="#4caf7a" stroke-width="0.45" opacity="0.62"/><line x1="19.59" y1="6.91" x2="20.51" y2="12" stroke="#4caf7a" stroke-width="0.45" opacity="0.62"/><line x1="15.57" y1="12" x2="20.51" y2="12" stroke="#4caf7a" stroke-width="0.45" opacity="0.62"/><line x1="20.51" y1="12" x2="19.59" y2="17.09" stroke="#4caf7a" stroke-width="0.45" opacity="0.62"/><line x1="15.19" y1="14.14" x2="19.59" y2="17.09" stroke="#4caf7a" stroke-width="0.45" opacity="0.62"/><line x1="19.59" y1="17.09" x2="12" y2="20.51" stroke="#4caf7a" stroke-width="0.45" opacity="0.62"/><line x1="12" y1="15.57" x2="12" y2="20.51" stroke="#4caf7a" stroke-width="0.45" opacity="0.62"/><line x1="12" y1="20.51" x2="4.42" y2="17.09" stroke="#4caf7a" stroke-width="0.45" opacity="0.62"/><line x1="8.82" y1="14.14" x2="4.42" y2="17.09" stroke="#4caf7a" stroke-width="0.45" opacity="0.62"/><line x1="4.42" y1="17.09" x2="3.49" y2="12" stroke="#4caf7a" stroke-width="0.45" opacity="0.62"/><line x1="8.43" y1="12" x2="3.49" y2="12" stroke="#4caf7a" stroke-width="0.45" opacity="0.62"/><line x1="3.49" y1="12" x2="4.42" y2="6.91" stroke="#4caf7a" stroke-width="0.45" opacity="0.62"/>
</svg>
